<svg width="55" height="55" viewBox="0 0 55 55" fill="none" xmlns="http://www.w3.org/2000/svg">
<g style="mix-blend-mode:darken">
<circle cx="27.5" cy="27.5" r="27.5" fill="#F8D57E"/>
</g>
<path fill-rule="evenodd" clip-rule="evenodd" d="M25.0625 9.625C24.551 9.625 24.0694 9.86582 23.7625 10.275L21.325 13.525C20.8112 14.2101 20.9172 15.1764 21.5675 15.7338L24.5311 18.274C18.7409 19.9185 14.5 25.2452 14.5 31.5625C14.5 39.1909 20.6841 45.375 28.3125 45.375C35.9409 45.375 42.125 39.1909 42.125 31.5625C42.125 25.2452 37.8841 19.9185 32.0939 18.274L35.0575 15.7338C35.7037 15.18 35.8131 14.2214 35.3084 13.5363L32.9144 10.2863C32.6081 9.87046 32.1225 9.625 31.6061 9.625H25.0625ZM24.8385 14.257L25.875 12.875H30.7848L31.7965 14.2485L28.3125 17.2347L24.8385 14.257ZM17.75 31.5625C17.75 25.729 22.479 21 28.3125 21C34.146 21 38.875 25.729 38.875 31.5625C38.875 37.396 34.146 42.125 28.3125 42.125C22.479 42.125 17.75 37.396 17.75 31.5625Z" fill="black" fill-opacity="0.85"/>
</svg>
